<svg width="600" height="682" viewBox="0 0 600 682" fill="none" xmlns="http://www.w3.org/2000/svg">
<path d="M211.4 599V593.24H199.52V588.164L209.096 572.72H212.768L202.76 588.884V590.288H211.4V583.88H214.64V599H211.4ZM270.138 599.36C268.506 599.36 267.198 598.928 266.214 598.064C265.23 597.176 264.738 595.976 264.738 594.464L265.386 595.22H264.738V599H261.498V572.72H264.738V578.48L264.666 582.98H265.386L264.666 583.736C264.666 582.248 265.17 581.06 266.178 580.172C267.21 579.284 268.53 578.84 270.138 578.84C272.13 578.84 273.714 579.5 274.89 580.82C276.066 582.14 276.654 583.94 276.654 586.22V592.016C276.654 594.272 276.066 596.06 274.89 597.38C273.714 598.7 272.13 599.36 270.138 599.36ZM269.058 596.552C270.426 596.552 271.494 596.192 272.262 595.472C273.03 594.752 273.414 593.588 273.414 591.98V586.22C273.414 584.588 273.03 583.424 272.262 582.728C271.494 582.008 270.426 581.648 269.058 581.648C267.738 581.648 266.682 582.068 265.89 582.908C265.122 583.748 264.738 584.912 264.738 586.4V591.8C264.738 593.288 265.122 594.452 265.89 595.292C266.682 596.132 267.738 596.552 269.058 596.552ZM322.432 599V596.048H329.452V582.152H323.152V579.2H332.692V596.048H339.352V599H322.432ZM330.712 575.636C329.92 575.636 329.296 575.432 328.84 575.024C328.384 574.616 328.156 574.064 328.156 573.368C328.156 572.648 328.384 572.084 328.84 571.676C329.296 571.244 329.92 571.028 330.712 571.028C331.504 571.028 332.128 571.244 332.584 571.676C333.04 572.084 333.268 572.648 333.268 573.368C333.268 574.064 333.04 574.616 332.584 575.024C332.128 575.432 331.504 575.636 330.712 575.636ZM393.338 599C391.706 599 390.398 598.532 389.414 597.596C388.43 596.636 387.938 595.364 387.938 593.78V582.152H382.25V579.2H387.938V573.62H391.178V579.2H399.278V582.152H391.178V593.78C391.178 594.452 391.37 595.004 391.754 595.436C392.162 595.844 392.69 596.048 393.338 596.048H399.098V599H393.338Z" fill="white"/>
<path d="M300 426.5V173" stroke="white" stroke-width="40" stroke-linejoin="bevel"/>
<path d="M300 150.758V227.5C300 247.382 283.882 263.5 264 263.5H187.066C154.971 263.5 138.919 224.678 161.642 202.012L238.576 125.27C261.268 102.635 300 118.707 300 150.758Z" fill="#C04726" stroke="white" stroke-width="40"/>
<path d="M300 448.742L300 372C300 352.118 316.118 336 336 336L412.934 336C445.029 336 461.081 374.822 438.358 397.488L361.424 474.23C338.732 496.865 300 480.793 300 448.742Z" fill="#1671A2" stroke="white" stroke-width="40"/>
<path d="M385.532 162.975C384.982 162.926 384.575 162.441 384.624 161.891L385.419 152.926C385.468 152.376 385.953 151.969 386.503 152.018C387.053 152.067 387.46 152.552 387.411 153.102L386.704 161.071L394.673 161.778C395.223 161.827 395.63 162.312 395.581 162.862C395.532 163.412 395.047 163.819 394.496 163.77L385.532 162.975ZM476.747 150.852L475.783 150.587L476.747 150.852ZM413.938 144.334L413.611 143.388L413.938 144.334ZM480.964 126.374L480.684 125.414L480.964 126.374ZM436.238 159.192L437.024 158.573L436.238 159.192ZM385.62 161.979C384.978 161.212 384.978 161.212 384.978 161.212C384.978 161.212 384.978 161.212 384.978 161.212C384.978 161.212 384.978 161.212 384.978 161.212C384.978 161.212 384.979 161.212 384.979 161.211C384.979 161.211 384.98 161.211 384.98 161.21C384.982 161.209 384.984 161.208 384.986 161.205C384.991 161.201 384.998 161.195 385.007 161.188C385.026 161.172 385.054 161.149 385.09 161.119C385.163 161.059 385.27 160.97 385.41 160.856C385.689 160.628 386.098 160.296 386.62 159.881L387.866 161.445C387.351 161.855 386.949 162.181 386.676 162.404C386.54 162.516 386.435 162.602 386.366 162.66C386.331 162.688 386.304 162.71 386.287 162.725C386.278 162.732 386.272 162.737 386.268 162.741C386.266 162.743 386.264 162.744 386.263 162.745C386.263 162.745 386.262 162.745 386.262 162.746C386.262 162.746 386.262 162.746 386.262 162.746C386.262 162.746 386.262 162.746 386.262 162.746C386.262 162.746 386.262 162.746 386.262 162.746C386.262 162.746 386.262 162.746 385.62 161.979ZM389.955 157.299C390.973 156.532 392.115 155.689 393.35 154.806L394.513 156.433C393.293 157.305 392.165 158.138 391.159 158.896L389.955 157.299ZM396.816 152.399C397.955 151.632 399.141 150.858 400.355 150.098L401.417 151.793C400.223 152.54 399.056 153.302 397.933 154.058L396.816 152.399ZM403.983 147.923C405.222 147.216 406.474 146.54 407.722 145.915L408.617 147.704C407.406 148.31 406.187 148.968 404.975 149.66L403.983 147.923ZM411.605 144.145C412.28 143.87 412.95 143.617 413.611 143.388L414.264 145.279C413.64 145.494 413.004 145.735 412.358 145.997L411.605 144.145ZM413.611 143.388C414.249 143.168 414.903 142.948 415.573 142.727L416.199 144.626C415.538 144.844 414.893 145.062 414.264 145.279L413.611 143.388ZM419.525 141.478C420.819 141.086 422.152 140.698 423.517 140.319L424.053 142.245C422.703 142.621 421.384 143.005 420.105 143.392L419.525 141.478ZM427.52 139.251C428.847 138.912 430.195 138.584 431.555 138.269L432.007 140.217C430.661 140.529 429.328 140.854 428.015 141.189L427.52 139.251ZM435.607 137.379C436.962 137.099 438.323 136.834 439.683 136.588L440.038 138.556C438.696 138.799 437.352 139.061 436.013 139.338L435.607 137.379ZM443.784 135.907C445.167 135.697 446.544 135.511 447.905 135.351L448.138 137.338C446.8 137.495 445.446 137.678 444.083 137.884L443.784 135.907ZM452.054 134.945C453.47 134.836 454.862 134.761 456.219 134.724L456.273 136.724C454.952 136.759 453.594 136.832 452.208 136.939L452.054 134.945ZM460.419 134.742C461.878 134.799 463.284 134.911 464.621 135.087L464.361 137.07C463.092 136.904 461.748 136.795 460.341 136.741L460.419 134.742ZM468.803 135.916C470.283 136.327 471.643 136.855 472.846 137.521L471.878 139.271C470.839 138.696 469.63 138.221 468.268 137.843L468.803 135.916ZM476.305 140.376C477.24 141.56 477.878 142.945 478.175 144.535L476.209 144.902C475.971 143.626 475.467 142.542 474.735 141.615L476.305 140.376ZM478.175 148.986C478.067 149.671 477.913 150.381 477.711 151.116L475.783 150.587C475.966 149.918 476.104 149.281 476.199 148.675L478.175 148.986ZM477.711 151.116C477.513 151.839 477.292 152.538 477.048 153.215L475.166 152.537C475.392 151.91 475.598 151.261 475.783 150.587L477.711 151.116ZM475.2 157.225C474.441 158.546 473.582 159.748 472.638 160.832L471.129 159.519C471.987 158.533 472.771 157.438 473.466 156.228L475.2 157.225ZM469.401 163.867C468.209 164.775 466.943 165.547 465.625 166.187L464.751 164.388C465.954 163.804 467.106 163.101 468.188 162.276L469.401 163.867ZM461.482 167.733C460.058 168.119 458.603 168.374 457.139 168.506L456.961 166.514C458.312 166.392 459.652 166.157 460.959 165.803L461.482 167.733ZM452.737 168.531C451.269 168.418 449.813 168.185 448.392 167.836L448.869 165.894C450.184 166.217 451.531 166.433 452.89 166.537L452.737 168.531ZM444.217 166.431C442.858 165.84 441.557 165.133 440.34 164.313L441.457 162.654C442.569 163.403 443.762 164.053 445.014 164.597L444.217 166.431ZM436.924 161.483C436.404 160.953 435.912 160.395 435.452 159.81L437.024 158.573C437.438 159.1 437.882 159.603 438.352 160.082L436.924 161.483ZM435.452 159.81C434.991 159.224 434.596 158.634 434.269 158.041L436.019 157.073C436.29 157.564 436.623 158.064 437.024 158.573L435.452 159.81ZM433.053 153.883C432.996 152.415 433.327 150.993 433.96 149.63L435.774 150.474C435.254 151.59 435.009 152.698 435.051 153.805L433.053 153.883ZM436.291 146.164C437.141 145.197 438.136 144.259 439.246 143.35L440.513 144.897C439.47 145.752 438.558 146.616 437.792 147.485L436.291 146.164ZM442.482 140.977C443.55 140.268 444.685 139.575 445.874 138.899L446.863 140.637C445.708 141.294 444.612 141.963 443.587 142.643L442.482 140.977ZM449.366 137.032C450.522 136.449 451.713 135.88 452.93 135.324L453.761 137.143C452.565 137.689 451.397 138.248 450.266 138.818L449.366 137.032ZM456.547 133.742C457.751 133.237 458.97 132.744 460.197 132.266L460.924 134.129C459.711 134.602 458.508 135.088 457.321 135.586L456.547 133.742ZM463.88 130.875C465.117 130.423 466.354 129.984 467.584 129.56L468.236 131.45C467.017 131.871 465.791 132.306 464.567 132.753L463.88 130.875ZM471.312 128.307C472.58 127.892 473.83 127.494 475.053 127.112L475.649 129.022C474.434 129.401 473.192 129.796 471.934 130.208L471.312 128.307ZM478.804 125.969C479.442 125.779 480.069 125.594 480.684 125.414L481.244 127.334C480.634 127.512 480.01 127.696 479.376 127.885L478.804 125.969ZM480.684 125.414C481.414 125.201 482.141 125 482.863 124.812L483.367 126.747C482.664 126.931 481.956 127.126 481.244 127.334L480.684 125.414ZM487.262 123.797C488.776 123.493 490.261 123.239 491.709 123.029L491.996 125.008C490.583 125.213 489.134 125.461 487.657 125.758L487.262 123.797ZM496.187 122.5C497.751 122.358 499.255 122.263 500.688 122.207L500.766 124.206C499.366 124.26 497.896 124.353 496.369 124.492L496.187 122.5ZM505.2 122.147C506.857 122.168 508.369 122.235 509.709 122.325L509.576 124.32C508.269 124.233 506.793 124.167 505.175 124.147L505.2 122.147ZM514.201 122.762C514.924 122.857 515.486 122.945 515.87 123.009C516.062 123.041 516.209 123.067 516.31 123.086C516.36 123.095 516.399 123.103 516.426 123.108C516.439 123.11 516.449 123.112 516.457 123.114C516.46 123.115 516.463 123.115 516.466 123.116C516.467 123.116 516.467 123.116 516.468 123.116C516.468 123.116 516.469 123.116 516.469 123.116C516.469 123.116 516.469 123.116 516.469 123.116C516.469 123.116 516.47 123.116 516.47 123.116C516.47 123.116 516.47 123.116 516.273 124.097C516.077 125.077 516.077 125.077 516.077 125.077C516.077 125.077 516.077 125.077 516.077 125.077C516.077 125.077 516.077 125.077 516.077 125.077C516.077 125.077 516.077 125.077 516.077 125.077C516.077 125.077 516.077 125.077 516.076 125.077C516.076 125.077 516.074 125.077 516.071 125.076C516.067 125.075 516.059 125.074 516.048 125.072C516.026 125.068 515.993 125.061 515.948 125.053C515.857 125.036 515.721 125.012 515.54 124.982C515.178 124.921 514.639 124.837 513.941 124.745L514.201 122.762Z" fill="white"/>
</svg>
