<svg width="680" height="697" viewBox="0 0 680 697" fill="none" xmlns="http://www.w3.org/2000/svg">
<path d="M340 409.5V156" stroke="white" stroke-width="40" stroke-linejoin="bevel"/>
<path d="M340 133.758V210.5C340 230.382 323.882 246.5 304 246.5H227.066C194.971 246.5 178.919 207.678 201.642 185.012L278.576 108.27C301.268 85.6354 340 101.707 340 133.758Z" fill="#20537C" stroke="white" stroke-width="40"/>
<path d="M340 431.742L340 355C340 335.118 356.118 319 376 319L452.934 319C485.029 319 501.081 357.822 478.358 380.488L401.424 457.23C378.732 479.865 340 463.793 340 431.742Z" fill="#E59B07" stroke="white" stroke-width="40"/>
<path d="M258.2 621V606.5H225.9V588.4L252.9 548H266.8L237.9 591.7V595.5H258.2V579H270.8V621H258.2ZM314.961 622C310.094 622 306.228 620.467 303.361 617.4C300.494 614.267 299.061 610.033 299.061 604.7L302.661 609.9H299.861V621H287.661V548H300.161V563.4L299.761 577.1H302.661L298.961 582.3C298.961 576.967 300.394 572.767 303.261 569.7C306.194 566.567 310.094 565 314.961 565C320.361 565 324.694 566.9 327.961 570.7C331.228 574.5 332.861 579.633 332.861 586.1V601C332.861 607.4 331.228 612.5 327.961 616.3C324.694 620.1 320.361 622 314.961 622ZM310.261 611.2C313.461 611.2 315.928 610.333 317.661 608.6C319.461 606.8 320.361 604.133 320.361 600.6V586.4C320.361 582.8 319.461 580.133 317.661 578.4C315.928 576.667 313.461 575.8 310.261 575.8C307.061 575.8 304.561 576.767 302.761 578.7C301.028 580.633 300.161 583.367 300.161 586.9V600.1C300.161 603.633 301.028 606.367 302.761 608.3C304.561 610.233 307.061 611.2 310.261 611.2ZM347.522 621V609.7H366.322V577.3H349.522V566H378.822V609.7H395.722V621H347.522ZM371.722 556.8C369.189 556.8 367.189 556.167 365.722 554.9C364.255 553.567 363.522 551.8 363.522 549.6C363.522 547.4 364.255 545.667 365.722 544.4C367.189 543.067 369.189 542.4 371.722 542.4C374.255 542.4 376.255 543.067 377.722 544.4C379.189 545.667 379.922 547.4 379.922 549.6C379.922 551.8 379.189 553.567 377.722 554.9C376.255 556.167 374.255 556.8 371.722 556.8ZM435.383 621C430.249 621 426.149 619.533 423.083 616.6C420.083 613.6 418.583 609.567 418.583 604.5V577.3H403.383V566H418.583V550.5H431.183V566H453.083V577.3H431.183V604.2C431.183 605.8 431.616 607.133 432.483 608.2C433.416 609.2 434.683 609.7 436.283 609.7H452.583V621H435.383Z" fill="white"/>
<path d="M442.532 159.975C441.982 159.926 441.575 159.441 441.624 158.891L442.419 149.926C442.468 149.376 442.953 148.969 443.503 149.018C444.053 149.067 444.46 149.552 444.411 150.102L443.704 158.071L451.673 158.778C452.223 158.827 452.63 159.312 452.581 159.862C452.532 160.412 452.047 160.819 451.497 160.77L442.532 159.975ZM533.747 147.852L532.783 147.587L533.747 147.852ZM470.938 141.334L470.612 140.388L470.938 141.334ZM537.964 123.374L537.684 122.414L537.964 123.374ZM493.238 156.192L494.024 155.573L493.238 156.192ZM442.62 158.979C441.978 158.212 441.978 158.212 441.978 158.212C441.978 158.212 441.978 158.212 441.978 158.212C441.978 158.212 441.978 158.212 441.978 158.212C441.979 158.212 441.979 158.212 441.979 158.211C441.979 158.211 441.98 158.211 441.98 158.21C441.982 158.209 441.984 158.208 441.986 158.205C441.991 158.201 441.998 158.195 442.007 158.188C442.026 158.172 442.054 158.149 442.09 158.119C442.163 158.059 442.27 157.97 442.41 157.856C442.689 157.628 443.098 157.296 443.62 156.881L444.866 158.445C444.351 158.855 443.949 159.181 443.676 159.404C443.54 159.516 443.435 159.602 443.366 159.66C443.331 159.688 443.304 159.71 443.287 159.725C443.278 159.732 443.272 159.737 443.268 159.741C443.266 159.743 443.264 159.744 443.263 159.745C443.263 159.745 443.262 159.745 443.262 159.746C443.262 159.746 443.262 159.746 443.262 159.746C443.262 159.746 443.262 159.746 443.262 159.746C443.262 159.746 443.262 159.746 443.262 159.746C443.262 159.746 443.262 159.746 442.62 158.979ZM446.955 154.299C447.973 153.532 449.115 152.689 450.35 151.806L451.513 153.433C450.293 154.305 449.165 155.138 448.159 155.896L446.955 154.299ZM453.816 149.399C454.955 148.632 456.141 147.858 457.355 147.098L458.417 148.793C457.223 149.54 456.056 150.302 454.933 151.058L453.816 149.399ZM460.983 144.923C462.222 144.216 463.474 143.54 464.722 142.915L465.617 144.704C464.406 145.31 463.187 145.968 461.975 146.66L460.983 144.923ZM468.605 141.145C469.28 140.87 469.95 140.617 470.612 140.388L471.264 142.279C470.64 142.494 470.004 142.735 469.358 142.997L468.605 141.145ZM470.612 140.388C471.249 140.168 471.903 139.948 472.573 139.727L473.199 141.626C472.538 141.844 471.893 142.062 471.264 142.279L470.612 140.388ZM476.525 138.478C477.819 138.086 479.152 137.698 480.517 137.319L481.053 139.245C479.703 139.621 478.384 140.005 477.105 140.392L476.525 138.478ZM484.52 136.251C485.848 135.912 487.195 135.584 488.555 135.269L489.007 137.217C487.661 137.529 486.328 137.854 485.015 138.189L484.52 136.251ZM492.607 134.379C493.962 134.099 495.323 133.834 496.683 133.588L497.039 135.556C495.696 135.799 494.352 136.061 493.013 136.338L492.607 134.379ZM500.784 132.907C502.167 132.697 503.544 132.511 504.905 132.351L505.138 134.338C503.8 134.495 502.446 134.678 501.083 134.884L500.784 132.907ZM509.054 131.945C510.47 131.836 511.862 131.761 513.219 131.724L513.273 133.724C511.952 133.759 510.594 133.832 509.208 133.939L509.054 131.945ZM517.419 131.742C518.878 131.799 520.284 131.911 521.622 132.087L521.361 134.07C520.092 133.904 518.748 133.795 517.341 133.741L517.419 131.742ZM525.803 132.916C527.283 133.327 528.643 133.855 529.846 134.521L528.878 136.271C527.839 135.696 526.63 135.221 525.268 134.843L525.803 132.916ZM533.305 137.376C534.24 138.56 534.878 139.945 535.175 141.535L533.209 141.902C532.971 140.626 532.467 139.542 531.735 138.615L533.305 137.376ZM535.175 145.986C535.067 146.671 534.913 147.381 534.712 148.116L532.783 147.587C532.966 146.918 533.104 146.281 533.199 145.675L535.175 145.986ZM534.712 148.116C534.513 148.839 534.292 149.538 534.048 150.215L532.166 149.537C532.392 148.91 532.598 148.261 532.783 147.587L534.712 148.116ZM532.2 154.225C531.441 155.546 530.582 156.748 529.638 157.832L528.129 156.519C528.987 155.533 529.771 154.438 530.466 153.228L532.2 154.225ZM526.401 160.867C525.209 161.775 523.943 162.547 522.625 163.187L521.751 161.388C522.954 160.804 524.106 160.101 525.188 159.276L526.401 160.867ZM518.482 164.733C517.058 165.119 515.603 165.374 514.14 165.506L513.961 163.514C515.312 163.392 516.652 163.157 517.959 162.803L518.482 164.733ZM509.737 165.531C508.269 165.418 506.813 165.185 505.392 164.836L505.869 162.894C507.184 163.217 508.531 163.433 509.89 163.537L509.737 165.531ZM501.217 163.431C499.858 162.84 498.557 162.133 497.34 161.313L498.457 159.654C499.569 160.403 500.762 161.053 502.014 161.597L501.217 163.431ZM493.924 158.483C493.404 157.953 492.912 157.395 492.452 156.81L494.024 155.573C494.438 156.1 494.882 156.603 495.352 157.082L493.924 158.483ZM492.452 156.81C491.991 156.224 491.596 155.634 491.269 155.041L493.019 154.073C493.29 154.564 493.623 155.064 494.024 155.573L492.452 156.81ZM490.053 150.883C489.996 149.415 490.327 147.993 490.96 146.63L492.774 147.474C492.254 148.59 492.009 149.698 492.051 150.805L490.053 150.883ZM493.291 143.164C494.141 142.197 495.136 141.259 496.246 140.35L497.513 141.897C496.47 142.752 495.558 143.616 494.792 144.485L493.291 143.164ZM499.482 137.977C500.55 137.268 501.685 136.575 502.874 135.899L503.863 137.637C502.708 138.294 501.612 138.963 500.587 139.643L499.482 137.977ZM506.366 134.032C507.522 133.449 508.713 132.88 509.931 132.324L510.761 134.143C509.565 134.689 508.397 135.248 507.266 135.818L506.366 134.032ZM513.547 130.742C514.751 130.237 515.97 129.744 517.197 129.266L517.924 131.129C516.711 131.602 515.508 132.088 514.321 132.586L513.547 130.742ZM520.88 127.875C522.117 127.423 523.354 126.984 524.584 126.56L525.236 128.45C524.017 128.871 522.791 129.306 521.567 129.753L520.88 127.875ZM528.312 125.307C529.58 124.892 530.83 124.494 532.054 124.112L532.649 126.022C531.434 126.401 530.192 126.796 528.934 127.208L528.312 125.307ZM535.804 122.969C536.442 122.779 537.069 122.594 537.684 122.414L538.245 124.334C537.634 124.512 537.01 124.696 536.376 124.885L535.804 122.969ZM537.684 122.414C538.414 122.201 539.141 122 539.863 121.812L540.367 123.747C539.664 123.931 538.956 124.126 538.245 124.334L537.684 122.414ZM544.262 120.797C545.776 120.493 547.261 120.239 548.709 120.029L548.996 122.008C547.583 122.213 546.134 122.461 544.657 122.758L544.262 120.797ZM553.187 119.5C554.751 119.358 556.255 119.263 557.688 119.207L557.766 121.206C556.366 121.26 554.896 121.353 553.369 121.492L553.187 119.5ZM562.2 119.147C563.857 119.168 565.369 119.235 566.709 119.325L566.576 121.32C565.269 121.233 563.793 121.167 562.175 121.147L562.2 119.147ZM571.201 119.762C571.924 119.857 572.486 119.945 572.87 120.009C573.062 120.041 573.21 120.067 573.31 120.086C573.361 120.095 573.399 120.103 573.426 120.108C573.439 120.11 573.45 120.112 573.457 120.114C573.461 120.115 573.463 120.115 573.466 120.116C573.467 120.116 573.468 120.116 573.468 120.116C573.469 120.116 573.469 120.116 573.469 120.116C573.469 120.116 573.469 120.116 573.469 120.116C573.469 120.116 573.47 120.116 573.47 120.116C573.47 120.116 573.47 120.116 573.273 121.097C573.077 122.077 573.077 122.077 573.077 122.077C573.077 122.077 573.077 122.077 573.077 122.077C573.077 122.077 573.077 122.077 573.077 122.077C573.077 122.077 573.077 122.077 573.077 122.077C573.077 122.077 573.077 122.077 573.077 122.077C573.076 122.077 573.074 122.077 573.072 122.076C573.067 122.075 573.059 122.074 573.048 122.072C573.026 122.068 572.993 122.061 572.948 122.053C572.858 122.036 572.721 122.012 572.54 121.982C572.178 121.921 571.639 121.837 570.941 121.745L571.201 119.762Z" fill="white"/>
</svg>
